<svg width="100" height="100" viewBox="0 0 100 100" fill="none" xmlns="http://www.w3.org/2000/svg">
<g clip-path="url(#clip0_18_9)">
<path d="M25.005 100C38.8023 100 50 92.5334 50 83.3334V66.6667H25.005C11.2078 66.6667 0.0100098 74.1334 0.0100098 83.3334C0.0100098 92.5334 11.2078 100 25.005 100Z" fill="#0ACF83"/>
<path d="M0.0100098 50C0.0100098 40.8 11.2078 33.3333 25.005 33.3333H50V66.6666H25.005C11.2078 66.6666 0.0100098 59.2 0.0100098 50Z" fill="#A259FF"/>
<path d="M0.0100098 16.6667C0.0100098 7.46673 11.2078 6.10352e-05 25.005 6.10352e-05H50V33.3334H25.005C11.2078 33.3334 0.0100098 25.8667 0.0100098 16.6667Z" fill="#F24E1E"/>
<path d="M50 6.10352e-05H74.995C88.7922 6.10352e-05 99.99 7.46673 99.99 16.6667C99.99 25.8667 88.7922 33.3334 74.995 33.3334H50V6.10352e-05Z" fill="#FF7262"/>
<path d="M99.99 50C99.99 59.2 88.7922 66.6666 74.995 66.6666C61.1978 66.6666 50 59.2 50 50C50 40.8 61.1978 33.3333 74.995 33.3333C88.7922 33.3333 99.99 40.8 99.99 50Z" fill="#1ABCFE"/>
</g>
<defs>
<clipPath id="clip0_18_9">
<rect width="100" height="100" fill="white"/>
</clipPath>
</defs>
</svg>
