<svg width="100" height="100" viewBox="0 0 100 100" fill="none" xmlns="http://www.w3.org/2000/svg">
<path d="M35.8417 39.8375L25.6187 45.4938C25.2354 45.7042 25 46.0958 25 46.5188V57.8375C25 58.2604 25.2354 58.65 25.6187 58.8625L35.8437 64.5229C36.225 64.7333 36.6979 64.7333 37.0792 64.5229L47.3021 58.8625C47.6812 58.65 47.9167 58.2604 47.9167 57.8375V46.5188C47.9167 46.0958 47.6812 45.7063 47.2979 45.4938L37.0771 39.8375C36.8854 39.7313 36.6708 39.6792 36.4583 39.6792C36.2437 39.6792 36.0312 39.7313 35.8396 39.8375M88.4396 50.0271L86.7354 50.9688C86.6708 51.0042 86.6333 51.0688 86.6333 51.1396V53.0271C86.6333 53.0979 86.6729 53.1625 86.7354 53.1979L88.4396 54.1417C88.5042 54.1771 88.5812 54.1771 88.6458 54.1417L90.35 53.1979C90.4125 53.1625 90.4521 53.0979 90.4521 53.0271V51.1396C90.4521 51.0688 90.4125 51.0042 90.3479 50.9688L88.6437 50.0271C88.6125 50.0083 88.5771 50 88.5417 50C88.5062 50 88.4708 50.0083 88.4396 50.0271Z" fill="#388E3C"/>
<path d="M74.4812 27.8417L69.5042 25.0646C69.3479 24.9771 69.1562 24.9792 69.0021 25.0708C68.8479 25.1625 68.7521 25.3271 68.7521 25.5062L68.75 42.2812L64.1604 39.7417C63.9688 39.6354 63.7542 39.5833 63.5417 39.5833C63.3292 39.5833 63.1146 39.6354 62.9229 39.7417H62.925L52.7021 45.3979C52.3188 45.6083 52.0833 46 52.0833 46.4208V57.7396C52.0833 58.1625 52.3188 58.5521 52.7021 58.7646L62.9271 64.425C63.3083 64.6354 63.7812 64.6354 64.1625 64.425L74.3854 58.7646C74.7646 58.5542 75 58.1625 75 57.7396V28.725C75 28.3583 74.8 28.0208 74.4812 27.8417ZM68.4708 55.1208L63.825 57.6938C63.6521 57.7896 63.4375 57.7896 63.2646 57.6938L58.6167 55.1208C58.4396 55.025 58.3333 54.8458 58.3333 54.6542V49.5083C58.3333 49.3167 58.4396 49.1396 58.6146 49.0417L63.2625 46.4708C63.35 46.4229 63.4437 46.4 63.5417 46.4C63.6396 46.4 63.7354 46.425 63.8229 46.4708L68.4688 49.0417C68.6438 49.1396 68.75 49.3187 68.75 49.5104V54.6562C68.75 54.8458 68.6438 55.025 68.4708 55.1208Z" fill="#37474F"/>
<path d="M35.8417 39.8375L25 57.8375C25 58.2604 25.2354 58.65 25.6187 58.8625L35.8437 64.5229C36.225 64.7333 36.6979 64.7333 37.0792 64.5229L47.9167 46.5188C47.9167 46.0958 47.6812 45.7063 47.2979 45.4938L37.0771 39.8375C36.8854 39.7313 36.6708 39.6792 36.4583 39.6792C36.2437 39.6792 36.0312 39.7313 35.8396 39.8375" fill="#2E7D32"/>
<path d="M35.8417 39.8375L25.6187 45.4938C25.2354 45.7042 25 46.0958 25 46.5188L35.8417 64.5229C36.2229 64.7333 36.6958 64.7333 37.0771 64.5229L47.3 58.8625C47.6813 58.65 47.9167 58.2604 47.9167 57.8375L37.0771 39.8375C36.8854 39.7313 36.6708 39.6792 36.4583 39.6792C36.2437 39.6792 36.0312 39.7313 35.8396 39.8375" fill="#4CAF50"/>
<path d="M99.3812 45.3979L89.1604 39.7417C88.9687 39.6354 88.7542 39.5833 88.5417 39.5833C88.3292 39.5833 88.1146 39.6354 87.9229 39.7417L77.7021 45.3979C77.3208 45.6083 77.0833 46.0083 77.0833 46.4458V57.7187C77.0833 58.1542 77.3208 58.5563 77.7021 58.7667L87.9271 64.4271C88.3104 64.6396 88.7792 64.6396 89.1625 64.4271L93.8771 61.8167C94.3083 61.5771 94.3062 60.9583 93.8729 60.7208L83.6146 55.1229C83.4417 55.025 83.3333 54.8438 83.3333 54.6479V49.5104C83.3333 49.3187 83.4375 49.1417 83.6042 49.05L88.2604 46.475H88.2583C88.3458 46.4271 88.4417 46.4042 88.5396 46.4042C88.6375 46.4042 88.7333 46.4292 88.8208 46.475L93.4771 49.0521C93.6437 49.1437 93.7479 49.3208 93.7479 49.5125V53.7042C93.7479 53.8833 93.8437 54.05 94 54.1396C94.1562 54.2271 94.3479 54.2271 94.5042 54.1375L99.5 51.2354C99.8083 51.0563 100 50.725 100 50.3667V46.45C100 46.0104 99.7625 45.6083 99.3812 45.3979ZM22.2979 45.3979L12.0771 39.7417C11.8854 39.6354 11.6708 39.5833 11.4583 39.5833C11.2458 39.5833 11.0312 39.6354 10.8396 39.7417L0.61875 45.3979C0.2375 45.6083 0 46.0083 0 46.4458V61.9979C0 62.1771 0.0958333 62.3438 0.252083 62.4333C0.408333 62.5208 0.6 62.5208 0.75625 62.4312L5.75208 59.5292C6.06042 59.35 6.25 59.0187 6.25 58.6604V49.5083C6.25 49.3167 6.35417 49.1396 6.52083 49.0479L11.1771 46.4729C11.2646 46.425 11.3604 46.4021 11.4583 46.4021C11.5562 46.4021 11.6521 46.4271 11.7396 46.4729L16.3958 49.05C16.5625 49.1417 16.6667 49.3187 16.6667 49.5104V58.6625C16.6667 59.0208 16.8562 59.3521 17.1667 59.5313L22.1625 62.4333C22.3187 62.5229 22.5104 62.5229 22.6667 62.4354C22.8208 62.3438 22.9167 62.1771 22.9167 61.9979V46.4479C22.9167 46.0104 22.6792 45.6083 22.2979 45.3979Z" fill="#37474F"/>
</svg>
